{"title":"Faster.2010.CAM.XviD-LEGi0N","uid":6016270,"size":739740778,"categoryP":"video","categoryS":"movies","magnet":"?xt=urn:btih:5adc52b38e4ae9353b0f658b4658bdbfa1f88f0b&amp;dn=Faster.2010.CAM.XviD-LEGi0N&amp;tr=udp%3A%2F%2Ftracker.openbittorrent.com%3A80&amp;tr=udp%3A%2F%2Fopen.demonii.com%3A1337&amp;tr=udp%3A%2F%2Ftracker.coppersurfer.tk%3A6969&amp;tr=udp%3A%2F%2Fexodus.desync.com%3A6969","seeders":0,"leechers":0,"uploader":"rlf-rls","files":-1,"time":1291644499,"description":"  ,--,                                                             \n,---.'|                                     ,----..            ,--. \n|   | :       ,---,.  ,----..      ,---,   /   /   \\         ,--.'| \n:   : |     ,'  .' | /   /   \\  ,`--.' |  /   .     :    ,--,:  : | \n|   ' :   ,---.'   ||   :     : |   :  : .   /   ;.  \\,`--.'`|  ' : \n;   ; '   |   |   .'.   |  ;. / :   |  '.   ;   /  ` ;|   :  :  | | \n'   | |__ :   :  |-,.   ; /--`  |   :  |;   |  ; \\ ; |:   |   \\ | : \n|   | :.'|:   |  ;/|;   | ;  __ '   '  ;|   :  | ; | '|   : '  '; | \n'   :    ;|   :   .'|   : |.' .'|   |  |.   |  ' ' ' :'   ' ;.    ; \n|   |  ./ |   |  |-,.   | '_.' :'   :  ;'   ;  \\; /  ||   | | \\   | \n;   : ;   '   :  ;/|'   ; : \\  ||   |  ' \\   \\  ',  / '   : |  ; .' \n|   ,/    |   |    \\'   | '/  .''   :  |  ;   :    /  |   | '`--'   \n'---'     |   :   .'|   :    /  ;   |.'    \\   \\ .'   '   : |       \n          |   | ,'   \\   \\ .'   '---'       `---`     ;   |.'       \n          `----'      `---`                           '---'         \n\n\nLEGi0N PRESENTS\n\nFaster 2010 CAM XviD-LEGi0N 12|05|2010 TH0RN  General\n\nInfo:\n\nFormat: AVI\nFile size: 700 MiB\nDuration: 1h 33mn\nOverall bit rate: 1 054 Kbps\nIMDb Rating: 7.4/10\nGenre: Action | Crime | Drama | Thriller\nRelease: 20 August 2010\nSubs: N/A\nLanguage: English\nIMDb Link: http://www.imdb.com/title/tt1433108/\nTrailer: http://www.imdb.com/video/imdb/vi4163606809/\n\nVideo Source: CAM DVDR - IMAGiNE THx!\nAudio Source: CAM DVDR - IMAGiNE THx!\n\nVideo:\n\nSample: Yes Video\nFourCC: XviD\nMatrix: H.263\nBVOP: Yes\nQPel: No\nGMC: No\nBit rate: 3 600 Kbps\nResolution: 608 x 336\nDAR: 16:9\nFPS: 29.970 fps\nBit depth: 8 bits\nQF: 0.153\nStream size: 623 MiB Audio\n\nAudio:\n\nFormat: CBR-Mp3\nBit rate: 104 Kbps\nChannels: 2 channels\nSampling rate: 48.0 KHz\nBit rate mode: Constant\nStream size: 69.3 MiB \n\nPilot:\n\nAn ex-con sets out to avenge his brother's death after\nthey were double-crossed during a heist years ago\nDuring his campaign, however, he's tracked by a veteran\ncop and an egocentric hit man\n\nCast:\n\nDwayne Johnson...Driver\nMauricio Lopez...Prison Guard\nJim Gaines...Inmate (as James Gaines)\nOliver Jackson-Cohen...Killer\nTom Berenger...Warden\nJan Hoag...Receptionist\nCourtney Gains...Telemarketer\n\nGreetz:\n\nELEKTRI4KA | Joshua08 | CRYS | BMB | LUSi\nHiTM4N | DiLLoN | Killerhz | iNK | Noir\nbigimac | YeFsTe | skillz | THC |\nFLAWL3SS | IMAGiNE | HiVE-CM8 | Rx |\nAND ALL AFFILIATED SITES!\n\nScreens:\n\n &lt;a href=&quot;\nhttp://www.leetleech.org/images/30418828361687598967.png&quot; rel=&quot;nofollow&quot; target=&quot;_NEW&quot;&gt;\nhttp://www.leetleech.org/images/30418828361687598967.png&lt;/a&gt;\n &lt;a href=&quot;\nhttp://www.leetleech.org/images/91596331535517330329.png&quot; rel=&quot;nofollow&quot; target=&quot;_NEW&quot;&gt;\nhttp://www.leetleech.org/images/91596331535517330329.png&lt;/a&gt;\n &lt;a href=&quot;\nhttp://www.leetleech.org/images/63015279130023608489.png&quot; rel=&quot;nofollow&quot; target=&quot;_NEW&quot;&gt;\nhttp://www.leetleech.org/images/63015279130023608489.png&lt;/a&gt;\n &lt;a href=&quot;\nhttp://www.leetleech.org/images/86089081818995141212.png&quot; rel=&quot;nofollow&quot; target=&quot;_NEW&quot;&gt;\nhttp://www.leetleech.org/images/86089081818995141212.png&lt;/a&gt;\n &lt;a href=&quot;\nhttp://www.leetleech.org/images/38975687756495793048.png&quot; rel=&quot;nofollow&quot; target=&quot;_NEW&quot;&gt;\nhttp://www.leetleech.org/images/38975687756495793048.png&lt;/a&gt;\n &lt;a href=&quot;\nhttp://www.leetleech.org/images/59957084638653864067.png&quot; rel=&quot;nofollow&quot; target=&quot;_NEW&quot;&gt;\nhttp://www.leetleech.org/images/59957084638653864067.png&lt;/a&gt;\n\n\nEnjoy !!!","torrent":{"xt":"urn:btih:5adc52b38e4ae9353b0f658b4658bdbfa1f88f0b","amp;dn":"Faster.2010.CAM.XviD-LEGi0N","amp;tr":["udp%3A%2F%2Ftracker.openbittorrent.com%3A80","udp%3A%2F%2Fopen.demonii.com%3A1337","udp%3A%2F%2Ftracker.coppersurfer.tk%3A6969","udp%3A%2F%2Fexodus.desync.com%3A6969"],"infoHash":"5adc52b38e4ae9353b0f658b4658bdbfa1f88f0b","infoHashBuffer":{"type":"Buffer","data":[90,220,82,179,142,74,233,53,59,15,101,139,70,88,189,191,161,248,143,11]},"announce":[],"urlList":[]}}